<svg xmlns="http://www.w3.org/2000/svg" viewBox="0 0 384 512" fill="#4b4b4b">
<path d="M318.7 268.7c-.3-47.5 38.8-70.3 40.6-71.4-22.2-32.3-56.8-36.8-69.1-37.3-29.4-3-57.4 17.3-72.3 17.3-15 0-38.2-16.9-62.8-16.5-32.3.5-62.1 18.8-78.7 47.8-33.6 58.3-8.6 144.3 24.1 191.4 16 22.8 35 48.4 60.1 47.5 24.2-.9 33.4-15.5 62.7-15.5 29.3 0 37.6 15.5 63.3 15 26.1-.4 42.6-23.5 58.5-46.5 18.4-26.8 26-52.7 26.3-54-0.6-.3-50.5-19.4-50.8-76.8zM271.5 122.1c13.3-16.1 22.3-38.5 19.9-60.8-19.2.8-42.4 12.8-56.2 28.8-12.4 14.3-23.2 37-20.3 58.8 21.4 1.7 43.3-10.9 56.6-26.8z"></path>
</svg>